<svg width="20" height="17" viewBox="0 0 20 17" fill="none" xmlns="http://www.w3.org/2000/svg">
<path d="M6.61129 4.6035L6.67289 5.4307C7.19689 4.7881 7.90559 4.4668 8.79879 4.4668C9.75129 4.4668 10.4053 4.8428 10.7607 5.5947C11.2803 4.8428 12.0208 4.4668 12.9824 4.4668C13.7845 4.4668 14.3815 4.7015 14.7734 5.1709C15.1654 5.6357 15.3613 6.3376 15.3613 7.2764V12H13.3789V7.2832C13.3789 6.8639 13.2969 6.5586 13.1328 6.3672C12.9688 6.1712 12.6794 6.0732 12.2646 6.0732C11.6722 6.0732 11.262 6.3558 11.0342 6.9209L11.041 12H9.06539V7.29C9.06539 6.8617 8.98109 6.5518 8.81249 6.3604C8.64389 6.1689 8.35679 6.0732 7.95119 6.0732C7.39059 6.0732 6.98499 6.3057 6.73439 6.7705V12H4.75879V4.6035H6.61129Z" fill="black"/>
<path d="M3 1H0" stroke="black" stroke-width="2"/>
<path d="M20 1H17" stroke="black" stroke-width="2"/>
<path d="M3 16H0" stroke="black" stroke-width="2"/>
<path d="M20 16H17" stroke="black" stroke-width="2"/>
<path d="M1 1V15" stroke="black" stroke-width="2"/>
<path d="M19 1V15" stroke="black" stroke-width="2"/>
</svg>
