<svg width="64" height="44" viewBox="0 0 64 44" fill="none" xmlns="http://www.w3.org/2000/svg">
<path fill-rule="evenodd" clip-rule="evenodd" d="M53.0599 43.6486H0V28.4995H53.0599V43.6486ZM15.4316 39.0995H14.5768V36.0814C14.5768 34.5061 13.4861 33.7847 12.2922 33.7847C11.2458 33.7847 10.4941 34.3295 10.1256 35.2128C9.80138 34.2411 8.91704 33.7847 7.95902 33.7847C7.03047 33.7847 6.33774 34.2117 5.93979 34.9184V33.9172H3.15415V35.36H4.03848V39.1143H3.15415V40.5569H7.1926V39.1143H5.92505V36.8028C5.92505 35.8753 6.29353 35.2275 7.20734 35.2275C7.95902 35.2275 8.34223 35.6692 8.34223 36.8175V40.5569H11.1279V39.1143H10.2435V36.8028C10.2435 35.8753 10.612 35.2275 11.5258 35.2275C12.2775 35.2275 12.6607 35.6692 12.6607 36.8175V40.5422H15.4316V39.0995ZM19.8238 33.7847C17.4361 33.7847 16.257 35.3895 16.257 37.3328C16.257 39.4528 17.6719 40.7042 19.7206 40.7042C21.843 40.7042 23.3759 39.3645 23.3759 37.2445C23.3759 35.3895 22.2115 33.7847 19.8238 33.7847ZM18.2173 37.2004C18.2173 38.3486 18.7479 39.232 19.7796 39.232C20.7671 39.232 21.4156 38.4518 21.4156 37.1708C21.4156 35.8311 20.6934 35.2275 19.7943 35.2275C18.8216 35.2275 18.2173 35.9489 18.2173 37.2004ZM29.3304 38.0838L30.8337 38.231L30.4211 40.5569H24.6287L24.4371 39.556L28.0922 35.36H26.0141L25.7194 36.3907L24.3486 36.2435L24.5845 33.9172H30.4063L30.5537 34.9184L26.869 39.1143H29.0209L29.3304 38.0838ZM34.2237 40.5569H32.2339V38.172H34.2237V40.5569ZM32.2339 36.3022H34.2237V33.9172H32.2339V36.3022ZM37.3188 40.5422L40.1929 30.4281H38.3211L35.447 40.5422H37.3188ZM44.0545 30.4281L41.1804 40.5422H39.3086L42.1827 30.4281H44.0545ZM50.3922 39.4233C50.4807 39.4233 50.5689 39.4088 50.6723 39.3792L50.7163 40.395C50.3627 40.5865 49.9353 40.7042 49.5226 40.7042C48.6383 40.7042 48.1519 40.1889 48.0633 39.3792C47.6803 40.0564 47.0023 40.7042 45.9262 40.7042C44.9682 40.7042 43.8776 40.1889 43.8776 38.805C43.8776 37.1708 45.4547 36.7881 46.9728 36.7881C47.3413 36.7881 47.7245 36.8028 48.0633 36.847V36.6261C48.0633 35.9489 48.0487 35.1392 46.9728 35.1392C46.5749 35.1392 46.2653 35.1686 45.9558 35.3306L45.7347 36.0814L44.2166 35.9195L44.4523 34.3884C45.6168 33.9172 46.2064 33.7847 47.2971 33.7847C48.7266 33.7847 49.9353 34.5209 49.9353 36.0372V38.9081C49.9353 39.2908 50.0827 39.4233 50.3922 39.4233Z" fill="black"/>
<path fill-rule="evenodd" clip-rule="evenodd" d="M46.6044 39.3352C46.0296 39.3352 45.8232 38.9965 45.8232 38.5695C45.8232 37.8481 46.4128 37.6567 47.0908 37.6567C47.4002 37.6567 47.7393 37.7009 48.0488 37.7451C48.0046 38.8492 47.2824 39.3352 46.6044 39.3352Z" fill="black"/>
<path d="M18.036 5.015H16.416L10.152 20H7.992L1.728 5.015H0.054V2.45H6.966V5.015H5.022L9.18 15.41H9.315L13.365 5.015H11.394V2.45H18.036V5.015ZM29.4477 13.952C29.4477 15.842 28.8447 17.372 27.6387 18.542C26.4507 19.694 24.9027 20.27 22.9947 20.27C21.1407 20.27 19.6467 19.712 18.5127 18.596C17.3967 17.48 16.8387 15.968 16.8387 14.06C16.8387 12.296 17.3697 10.784 18.4317 9.524C19.4937 8.246 21.0687 7.607 23.1567 7.607C25.2627 7.607 26.8377 8.237 27.8817 9.497C28.9257 10.757 29.4477 12.242 29.4477 13.952ZM26.4507 13.871C26.4507 12.575 26.1357 11.585 25.5057 10.901C24.8937 10.217 24.0927 9.875 23.1027 9.875C22.0767 9.875 21.2757 10.244 20.6997 10.982C20.1237 11.702 19.8357 12.674 19.8357 13.898C19.8357 15.05 20.1057 16.022 20.6457 16.814C21.2037 17.606 22.0227 18.002 23.1027 18.002C24.1467 18.002 24.9657 17.624 25.5597 16.868C26.1537 16.094 26.4507 15.095 26.4507 13.871ZM32.6757 5.366V2.18H35.6187V5.366H32.6757ZM37.5087 20H31.0287V17.786H32.8377V10.118H30.9207V7.877H35.6997V17.786H37.5087V20ZM50.0365 15.653C49.9105 16.733 49.4335 17.777 48.6055 18.785C47.7775 19.775 46.4455 20.27 44.6095 20.27C42.8815 20.27 41.4685 19.748 40.3705 18.704C39.2905 17.66 38.7505 16.139 38.7505 14.141C38.7505 12.179 39.3085 10.604 40.4245 9.416C41.5585 8.228 43.0345 7.634 44.8525 7.634C45.5725 7.634 46.2925 7.724 47.0125 7.904C47.7325 8.084 48.4435 8.381 49.1455 8.795L49.6315 12.197L47.3095 12.44L46.9045 10.442C46.2385 10.118 45.5365 9.956 44.7985 9.956C42.7825 9.956 41.7745 11.306 41.7745 14.006C41.7745 16.634 42.8095 17.948 44.8795 17.948C46.3915 17.948 47.3005 17.03 47.6065 15.194L50.0365 15.653ZM62.829 16.301C62.721 17.363 62.199 18.29 61.263 19.082C60.327 19.874 59.04 20.27 57.402 20.27C55.638 20.27 54.189 19.757 53.055 18.731C51.921 17.687 51.354 16.157 51.354 14.141C51.354 12.287 51.867 10.739 52.893 9.497C53.937 8.255 55.386 7.634 57.24 7.634C58.914 7.634 60.237 8.138 61.209 9.146C62.199 10.136 62.703 11.396 62.721 12.926C62.721 13.43 62.667 13.97 62.559 14.546H54.378C54.54 16.814 55.62 17.948 57.618 17.948C58.554 17.948 59.22 17.723 59.616 17.273C60.03 16.823 60.3 16.346 60.426 15.842L62.829 16.301ZM59.751 12.764C59.823 12.044 59.652 11.369 59.238 10.739C58.842 10.091 58.167 9.767 57.213 9.767C56.349 9.767 55.692 10.055 55.242 10.631C54.792 11.207 54.513 11.918 54.405 12.764H59.751Z" fill="black"/>
</svg>
